<svg width="75" height="60" viewBox="0 0 75 60" fill="none" xmlns="http://www.w3.org/2000/svg">
<path d="M24.4449 54.2334C24.6316 54.3343 25.1089 54.6373 25.5031 54.8953C26.9764 55.8489 29.5701 57.1167 31.1368 57.644C31.5414 57.7898 31.8838 57.9245 31.8838 57.9469C31.8838 57.9806 31.697 58.1937 31.4688 58.4405C31.2405 58.6874 31.0226 59.0127 30.9915 59.1698C30.9396 59.3605 30.8774 59.4278 30.7633 59.3829C30.6803 59.3493 30.4001 59.2708 30.1511 59.2147C28.7816 58.8781 26.0426 57.4981 24.2893 56.264L23.1299 55.4142L23.6771 54.5475C23.7394 54.3904 23.8431 54.3007 23.895 54.3343C23.9573 54.368 23.9988 54.3231 23.9988 54.2334C23.9988 54.009 24.0299 54.009 24.4449 54.2334Z" fill="black"/>
<path d="M44.5931 57.644C45.4543 57.3186 46.5437 56.8811 47.0313 56.6567C48.0065 56.2079 51.5548 54.2334 51.8141 53.9753L52.945 55.2343C50.6971 57.1022 47.0775 58.993 44.0018 59.8317C43.7803 59.895 43.5353 59.9528 43.3026 59.9992L42.8358 58.4881C43.1145 58.2085 43.5843 58.0121 44.5931 57.644Z" fill="black"/>
<path d="M41.0656 0.0898626C44.3856 0.493751 46.8445 1.3352 49.8636 3.13026C53.609 5.35165 56.182 7.66279 58.5164 10.9163C59.8859 12.8348 61.9713 17.0869 62.2203 18.478C62.2721 18.8034 62.2618 18.837 62.0958 18.7585C62.0024 18.7136 61.577 18.6463 61.162 18.6239L60.415 18.579L59.7199 17.0532C58.2778 13.8221 56.1509 10.8715 53.6816 8.65007C51.4303 6.61941 49.9155 5.55359 47.6538 4.38681C45.0081 3.01807 43.0576 2.4459 40.1008 2.1542C38.0984 1.96348 37.9428 1.96348 36.0649 2.1542C33.7928 2.37858 32.278 2.71516 30.3275 3.42196C26.4161 4.82435 22.1831 7.85352 19.4856 11.1968C17.5455 13.5977 15.844 16.4698 15.3771 18.1415C15.3045 18.3995 15.18 18.6463 15.1074 18.68C15.0348 18.7136 14.6094 18.6912 14.1529 18.6463L13.3229 18.5453L13.6134 17.5917C14.4849 14.6972 16.6533 11.2529 19.4441 8.33594C22.2454 5.40775 25.2334 3.33221 28.875 1.78397C30.6491 1.03229 33.44 0.291815 35.4113 0.0562135C36.1998 -0.0335395 40.1838 -0.0111095 41.0656 0.0898626Z" fill="#93E6F7"/>
<path d="M60.7678 23.3135C61.2035 23.6837 61.5666 23.9978 61.5666 24.0203C61.575 24.0293 61.5969 24.7922 61.6269 25.836L61.6341 26.0858C61.6391 26.2593 61.6443 26.4391 61.6496 26.6231L61.7119 29.2035L62.4589 29.2596C63.3511 29.3269 63.9218 29.6971 64.3886 30.5161C65.1668 31.8737 64.7103 33.3321 63.2993 34.0726C62.9361 34.2521 62.4278 34.4428 62.158 34.4877L61.6704 34.555L61.6393 41.8138L61.6081 49.0726L61.2139 49.6447C60.9649 50.0262 60.6536 50.3067 60.3424 50.475C59.8651 50.7218 59.7718 50.733 55.8604 50.7554C51.9905 50.7667 51.8141 50.7779 50.6625 51.0584C49.1789 51.4062 48.463 51.6754 46.886 52.4495C43.7735 53.9641 41.5533 55.7255 38.7935 58.8332C38.2333 59.4727 37.7145 60 37.6419 60C37.5796 60 37.2165 59.6634 36.8534 59.2483C35.0066 57.1616 32.693 54.8392 31.8838 54.2558C30.9396 53.5714 27.4951 51.7764 26.385 51.3837C24.642 50.7667 24.4553 50.7442 19.9006 50.733L19.8757 50.7329C15.8018 50.7218 15.6357 50.7213 15.2319 50.4974C14.7961 50.2506 14.4123 49.8355 14.101 49.3082C13.935 49.0053 13.9143 48.1638 13.8624 36.4511C13.8105 25.131 13.8209 23.9081 13.9765 23.7735C14.4953 23.3022 15.3356 22.8647 15.7091 22.8647H16.1138V35.6209V48.3658L19.8176 48.3882C23.6149 48.4106 24.4968 48.478 26.0945 48.9379C27.6093 49.3755 31.1575 51.1257 32.6826 52.2139C33.8861 53.0554 34.4256 53.549 36.3243 55.5684C37.6938 57.0157 37.9324 57.2289 38.0154 57.0494C38.4304 56.2528 40.412 54.2222 42.0513 52.9207C43.9084 51.4398 46.1805 50.1833 48.4319 49.3867C50.5691 48.635 51.3576 48.5341 55.6425 48.478L59.336 48.4219L59.2945 36.4511C59.253 24.57 59.2738 23.2125 59.5954 22.7974C59.7925 22.5394 59.9481 22.6067 60.7678 23.3135Z" fill="#FF0000"/>
<path fill-rule="evenodd" clip-rule="evenodd" d="M44.1366 6.2604C42.8398 5.5536 41.5636 5.07117 40.4224 4.85801C39.5198 4.68972 37.673 4.56631 37.0713 4.64484C36.9447 4.65924 36.6473 4.69676 36.3077 4.73958L36.3034 4.74012L36.3017 4.74034C36.114 4.76401 35.9137 4.78928 35.7225 4.81313C34.6539 4.93654 33.3466 5.37409 32.0394 6.03601C30.8774 6.61941 28.7505 8.29106 27.7545 9.40175C26.7274 10.5461 25.6795 12.2514 25.2334 13.508C24.8391 14.6186 24.4138 16.6157 24.4138 17.3673C24.4138 17.861 24.4656 17.9956 24.7146 18.2761C24.8806 18.4556 25.0778 18.6014 25.14 18.6014C25.2126 18.6014 25.4201 18.4331 25.6069 18.2312C25.887 17.9283 25.9596 17.7263 26.0738 17.0308C26.7481 12.6329 29.8191 8.79592 33.9173 7.20281C37.009 6.01358 40.5469 6.35015 43.5971 8.14521C45.1949 9.08762 46.5436 10.4451 47.9754 12.5431C48.5253 13.3509 49.3034 15.3142 49.5731 16.5932C49.7806 17.6029 49.9466 17.9507 50.4031 18.321L50.7559 18.6239L51.0775 18.3771C51.5029 18.0517 51.5548 17.7151 51.3473 16.5483C50.8181 13.5304 49.6665 11.208 47.6641 9.06518C46.3569 7.66279 45.5891 7.04574 44.1366 6.2604ZM43.1095 10.7032C41.8853 9.81686 40.6714 9.24469 39.5509 9.00909C38.7831 8.85202 37.3929 8.80714 36.76 8.91933C35.8574 9.06518 34.8821 9.35688 34.3011 9.63736C33.3363 10.1086 31.8838 11.2193 31.1783 12.027C30.203 13.1602 29.6635 14.2709 29.29 15.9313C28.9891 17.2888 28.9788 17.3673 29.1344 17.7712C29.4768 18.6463 29.7984 18.8034 30.2445 18.2873C30.5661 17.9283 30.6595 17.6815 30.95 16.4474C31.614 13.665 33.606 11.6007 36.3658 10.8715C37.5278 10.5685 38.3681 10.5685 39.4575 10.8939C42.2173 11.7241 44.2819 13.867 44.8525 16.4698C45.1015 17.6254 45.6203 18.4892 46.0664 18.4892C46.3569 18.4892 46.7927 18.0629 46.8757 17.6815C47.0313 17.0083 46.222 14.5177 45.4335 13.2387C44.6969 12.0383 44.1782 11.4773 43.1095 10.7032ZM32.1328 25.1983C28.4808 22.831 24.3515 21.2267 20.1911 20.5648C20.0506 20.5427 19.9227 20.5217 19.8061 20.5026C19.158 20.3964 18.8634 20.3481 18.7227 20.4849C18.6056 20.5989 18.5953 20.8414 18.5765 21.286L18.5765 21.2861C18.5725 21.3804 18.5681 21.4838 18.5623 21.5969C18.5208 22.2701 18.4481 23.2125 18.3963 23.7061C18.3444 24.1998 18.2718 29.3269 18.251 35.0935C18.2199 40.8602 18.168 45.7068 18.1265 45.8527L18.0539 46.1219L19.0603 46.0546C20.077 45.9985 20.1496 45.9649 20.8033 45.4039C21.073 45.1683 21.1145 45.1571 22.0483 45.2917C23.9261 45.5498 26.4888 46.2566 27.9413 46.9073C30.2134 47.917 32.9005 49.6448 34.2804 50.9574C34.5398 51.2154 34.9859 51.6081 35.266 51.8437C35.5461 52.0905 36.0441 52.5505 36.3761 52.8983C36.7185 53.2349 36.9986 53.4929 36.9986 53.4705C37.009 53.448 37.009 48.175 36.9883 41.7465L36.9571 30.0562L36.6459 29.742C36.4695 29.5737 36.0026 28.9903 35.6084 28.4518C34.5501 27.027 33.6371 26.1743 32.1328 25.1983ZM57.1884 23.4593C57.012 23.4032 56.9913 23.2686 56.9913 21.8999C56.9913 20.4077 56.9913 20.3965 56.763 20.4077C56.1924 20.4526 53.1318 21.1145 52.1669 21.4174C51.1501 21.7316 48.2866 22.8198 47.2906 23.2574C43.3793 25.0076 41.7711 26.2304 39.3849 29.2259L38.7416 30.0449L38.7728 41.006C38.7831 47.1429 38.7624 52.2364 38.7105 52.5729C38.6586 52.8983 38.6275 53.2237 38.6483 53.291C38.669 53.3583 39.1359 52.9993 39.6754 52.4832C41.2524 50.9686 42.8605 49.7457 44.8214 48.5453C47.0105 47.2102 48.5875 46.5146 51.0153 45.8527C52.1669 45.5386 54.107 45.0786 54.2938 45.0786C54.3353 45.0786 54.4079 45.2693 54.4494 45.4937C54.5324 46.021 54.6258 46.0883 55.2794 46.0883C55.5699 46.0995 56.1405 46.1668 56.5555 46.2454C57.095 46.3463 57.3336 46.3463 57.3855 46.2678C57.4685 46.1332 57.4996 24.9402 57.427 24.0539C57.3855 23.6388 57.3233 23.493 57.1884 23.4593Z" fill="black"/>
<path d="M39.6028 13.3621C40.5573 13.8782 41.2524 14.5962 41.6155 15.4376C41.8541 15.9986 41.8957 16.223 41.8957 17.199C41.8957 18.2088 41.8645 18.3883 41.5948 18.9829C41.2524 19.7121 40.1215 21.0023 39.3226 21.5633L38.8143 21.9111L38.8246 24.0988C38.835 26.0958 38.8246 26.3202 38.6379 26.6455C38.4719 26.9372 37.7664 27.4645 37.5485 27.4645C37.5174 27.4645 37.3929 27.2963 37.258 27.0943C37.0298 26.7577 37.0194 26.6119 36.9675 24.3793L36.9156 22.0233L36.4073 21.6643C36.1168 21.4623 35.6188 21.0135 35.2868 20.6545C33.4504 18.7024 33.2636 16.2454 34.8095 14.3045C35.598 13.2948 36.594 12.8572 37.9739 12.9133C38.7105 12.947 38.9284 13.0031 39.6028 13.3621Z" fill="black"/>
<path d="M37.2373 14.8094C36.9986 14.8879 36.6355 15.1347 36.345 15.4489C35.93 15.8864 35.8263 16.0659 35.7225 16.6156C35.598 17.3 35.6603 18.018 35.8781 18.4892C36.0856 18.9156 36.7704 19.5775 37.1958 19.7794C38.337 20.2843 39.5198 19.4877 39.9348 17.9395C40.3083 16.5708 39.582 15.1347 38.3578 14.7981C37.8494 14.6523 37.7871 14.6523 37.2373 14.8094ZM38.2125 16.4137C38.3785 16.5035 38.5653 16.683 38.6275 16.7951C38.7935 17.1429 38.752 17.76 38.5238 18.0629C37.9739 18.837 36.8638 18.2312 36.8638 17.1542C36.8638 16.9298 36.9571 16.7391 37.1854 16.5371C37.5485 16.2005 37.7871 16.1781 38.2125 16.4137Z" fill="white"/>
<path d="M22.0068 27.3411C21.9964 27.7787 21.986 28.2274 21.986 28.3284C21.9756 28.4743 22.2454 28.5864 23.2725 28.8669C25.0985 29.3606 26.6548 30.0113 28.8231 31.1668C30.7633 32.199 32.4129 33.2648 33.5126 34.196C34.2285 34.8131 34.3115 34.7906 34.4049 33.9716C34.436 33.6912 34.4879 33.3658 34.5294 33.2424C34.5709 33.0629 34.4153 32.8834 33.6475 32.2888C30.5558 29.8766 27.0075 28.0367 23.3763 26.9597C22.8368 26.8026 22.3076 26.6455 22.2143 26.6119C22.0483 26.5558 22.0275 26.6455 22.0068 27.3411Z" fill="white"/>
<path d="M22.0483 32.2888L22.0794 33.2199L23.4281 33.7024C25.1296 34.297 25.887 34.6448 28.2006 35.8677C30.1096 36.8886 32.5166 38.5042 33.5541 39.4802C33.8758 39.7831 34.1663 40.03 34.1974 40.03C34.2181 40.03 34.2804 39.7944 34.3219 39.4914C34.3634 39.1997 34.436 38.8744 34.4983 38.7622C34.6228 38.4929 34.5398 38.3807 33.3881 37.3935C30.5869 34.9813 26.8519 32.9395 23.0235 31.7278C22.6708 31.6156 22.3076 31.4922 22.2039 31.4473C22.0379 31.3688 22.0171 31.4361 22.0483 32.2888Z" fill="white"/>
<path d="M22.0483 37.2476C21.9653 37.371 21.9445 37.674 21.986 38.2686L22.0586 39.11L23.1584 39.1885C24.559 39.2895 25.0674 39.4915 27.8686 41.0173C30.0785 42.2289 33.0769 44.2484 33.689 44.9552C34.0625 45.3703 34.1663 45.3927 34.1663 45.0225C34.1663 44.8766 34.2389 44.5064 34.3323 44.2147C34.4983 43.6874 34.4983 43.6874 34.2389 43.4518C32.7241 42.1055 31.8838 41.4099 31.0538 40.8265C30.0578 40.1197 28.5534 39.2895 27.7856 39.0202C27.5574 38.9417 26.9556 38.6837 26.4369 38.4481C25.2749 37.9208 23.2725 37.2364 22.65 37.1467C22.3076 37.1018 22.1416 37.1354 22.0483 37.2476Z" fill="white"/>
<path d="M51.2332 27.4085C47.7679 28.6762 45.7552 29.6523 43.7424 31.021C43.2237 31.38 42.4144 31.9186 41.9475 32.2327C41.2524 32.7039 41.1279 32.8273 41.1798 33.018C41.2109 33.1414 41.325 33.5565 41.4184 33.9492L41.5948 34.6672L41.7919 34.4204C42.321 33.7921 44.9978 32.0307 47.0313 30.9761C48.3593 30.2918 52.9762 28.4743 53.3912 28.4743C53.5468 28.4743 53.5675 28.3621 53.5468 27.5768C53.5468 27.0719 53.5053 26.6568 53.4742 26.6343C53.443 26.6231 52.4367 26.9597 51.2332 27.4085Z" fill="white"/>
<path d="M51.7 31.9971C47.9339 33.5341 44.9044 35.2394 42.3314 37.2701C41.3769 38.0217 41.2109 38.19 41.2628 38.392C41.3043 38.5266 41.3562 38.9754 41.3977 39.3905L41.4599 40.1534L41.9372 39.6597C42.487 39.0875 43.4104 38.3246 44.23 37.7749C45.6514 36.7988 48.5668 35.1721 49.7288 34.7009C49.9259 34.6111 50.6106 34.3194 51.2331 34.0277C51.866 33.7472 52.6441 33.4107 52.9761 33.276C53.5571 33.0629 53.5675 33.0404 53.5571 32.6478C53.5571 32.4122 53.5156 32.0195 53.4845 31.7727L53.4119 31.3015L51.7 31.9971Z" fill="white"/>
<path d="M52.281 37.1803C51.2954 37.3822 50.621 37.6403 49.8325 38.0778C49.459 38.291 48.4215 38.8407 47.5189 39.3007C45.392 40.389 43.8254 41.4099 42.4663 42.5991C41.8645 43.1152 41.3562 43.564 41.3354 43.5752C41.2732 43.6313 41.5637 45.3029 41.6467 45.3029C41.6778 45.3029 41.7815 45.2132 41.8542 45.1122C42.238 44.6186 44.8007 42.8011 46.1702 42.0606C48.7328 40.6807 52.0943 39.3568 53.0384 39.3568C53.3289 39.3568 53.36 39.3232 53.36 39.009C53.36 38.8183 53.4327 38.3471 53.526 37.9769C53.6817 37.3374 53.6816 37.2813 53.5053 37.1466C53.2874 36.9784 53.2148 36.9784 52.281 37.1803Z" fill="white"/>
<path d="M66.5755 23.7803C67.3017 24.1842 68.3496 25.7885 69.024 27.505C70.5284 31.3644 70.4972 35.0891 68.941 38.5895C68.4015 39.79 67.5922 41.1362 67.0735 41.686C66.7415 42.0226 66.617 42.0787 66.0464 42.1123C65.4654 42.1572 65.3824 42.1348 65.1541 41.8655C64.9674 41.6523 64.8844 41.4055 64.8532 40.9904C64.8117 40.4631 64.8532 40.3397 65.1645 39.8573C66.7726 37.3779 67.0631 36.7496 67.4262 34.977C67.6649 33.8102 67.6856 32.9575 67.4885 31.7458C67.1772 29.8723 66.4302 28.0772 65.4135 26.7982C65.1645 26.4729 64.8947 26.0241 64.8325 25.7997C64.5731 24.9583 64.8947 24.1281 65.6106 23.7803C66.0152 23.5895 66.2331 23.5895 66.5755 23.7803Z" fill="#93E6F7"/>
<path d="M69.6672 18.7429C70.0926 18.9336 70.2171 19.0795 71.0367 20.3023C71.7007 21.3121 71.9601 21.7496 72.3647 22.5574C74.3878 26.6299 75 29.0869 75 33.1595C75 36.3569 74.585 38.4661 73.5267 40.7324C72.0742 43.8288 70.5802 46.0951 69.7399 46.4766C68.7854 46.9029 67.945 46.3644 67.945 45.3322C67.945 44.8049 68.028 44.6478 68.9202 43.4923C69.9681 42.1348 70.5283 41.2484 71.2027 39.8573C72.7486 36.6598 73.0702 33.1595 72.1779 29.2889C71.6384 26.9441 70.0719 23.6905 68.443 21.5701C68.1732 21.2111 67.8931 20.7174 67.8309 20.4818C67.5922 19.6292 67.9554 18.8775 68.692 18.6868C69.2004 18.5522 69.2626 18.5634 69.6672 18.7429Z" fill="#93E6F7"/>
<path d="M3.96324 44.9732C4.78287 46.1961 4.90736 46.3419 5.33274 46.5326C5.73736 46.7121 5.79961 46.7234 6.30799 46.5887C7.04461 46.398 7.40773 45.6463 7.16911 44.7937C7.10686 44.5581 6.82674 44.0644 6.55699 43.7054C4.92812 41.585 3.3615 38.3315 2.822 35.9867C1.92975 32.1161 2.25137 28.6157 3.79725 25.4182C4.47162 24.0271 5.03186 23.1408 6.07974 21.7832C6.97199 20.6277 7.05499 20.4706 7.05499 19.9433C7.05499 18.9111 6.21461 18.3726 5.26011 18.799C4.41974 19.1804 2.92574 21.4467 1.47325 24.5431C0.414997 26.8094 -5.06519e-06 28.9186 -5.06519e-06 32.1161C-5.06519e-06 36.1886 0.612122 38.6456 2.63525 42.7181C3.03987 43.5259 3.29924 43.9635 3.96324 44.9732Z" fill="#93E6F7"/>
<path d="M9.53461 41.466C8.80836 41.0621 7.76049 39.4578 7.08611 37.7413C5.58174 33.8819 5.61286 30.1572 7.16911 26.6568C7.70861 25.4563 8.51786 24.11 9.03661 23.5603C9.36861 23.2237 9.4931 23.1676 10.0637 23.134C10.6447 23.0891 10.4087 23.134 10.956 23.3808C11.5033 23.6276 10.9456 25.389 10.9456 25.389C10.9456 25.389 9.04698 28.4967 8.68386 30.2693C8.44523 31.4361 8.42448 32.2888 8.6216 33.5005C8.93285 35.374 9.67986 37.1691 10.6966 38.4481C11.7134 39.7271 11.0961 41.0341 10.4995 41.466C9.90288 41.898 9.87698 41.6567 9.53461 41.466Z" fill="#93E6F7"/>
</svg>
